<?xml version="1.0" encoding="UTF-8"?>
<svg width="3116px" height="336px" viewBox="0 0 3116 336" version="1.1" xmlns="http://www.w3.org/2000/svg" xmlns:xlink="http://www.w3.org/1999/xlink">
    <title>Artboard</title>
    <g id="Artboard" stroke="none" stroke-width="1" fill="none" fill-rule="evenodd">
        <path d="M816.849997,261.15 C837.499997,261.15 852.899997,254.15 864.099997,239.8 L864.799997,240.15 L864.799997,258 L916.949997,258 L916.949997,86.85 L861.999997,86.85 L861.999997,104.7 L861.299997,105.05 C849.399997,91.05 832.249997,83.7 814.049997,83.7 C769.949997,83.7 735.999997,120.1 735.999997,172.6 C735.999997,225.45 769.949997,261.15 816.849997,261.15 Z M828.399997,212.85 C806.699997,212.85 791.649997,196.75 791.649997,172.6 C791.649997,148.1 807.399997,132 828.399997,132 C848.699997,132 864.449997,149.15 864.449997,172.6 C864.449997,197.1 847.999997,212.85 828.399997,212.85 Z M995.566664,261.15 C1019.36666,261.15 1031.61666,256.25 1043.51666,249.6 L1029.86666,209.35 C1023.91666,212.15 1016.91666,213.2 1013.06666,213.2 C1002.56666,213.2 1000.11666,205.15 1000.11666,193.95 L1000.11666,130.95 L1041.41666,130.95 L1041.41666,86.85 L1000.11666,86.85 L1000.11666,26.3 L945.166664,31.9 L945.166664,86.85 L925.916664,86.85 L925.916664,130.95 L945.166664,130.95 L945.166664,204.1 C945.166664,242.95 966.166664,261.15 995.566664,261.15 Z M1114.08333,261.15 C1137.88333,261.15 1150.13333,256.25 1162.03333,249.6 L1148.38333,209.35 C1142.43333,212.15 1135.43333,213.2 1131.58333,213.2 C1121.08333,213.2 1118.63333,205.15 1118.63333,193.95 L1118.63333,130.95 L1159.93333,130.95 L1159.93333,86.85 L1118.63333,86.85 L1118.63333,26.3 L1063.68333,31.9 L1063.68333,86.85 L1044.43333,86.85 L1044.43333,130.95 L1063.68333,130.95 L1063.68333,204.1 C1063.68333,242.95 1084.68333,261.15 1114.08333,261.15 Z M1247.65,261.15 C1286.5,261.15 1310.3,248.2 1324.65,230.35 L1293.15,198.15 C1281.6,211.1 1267.25,216.35 1253.25,216.7 C1232.25,216.7 1215.8,206.55 1212.3,186.95 L1328.85,186.95 C1329.2,183.45 1329.9,175.4 1329.9,170.5 C1329.9,119.75 1294.55,83.7 1246.25,83.7 C1194.45,83.7 1158.05,120.45 1158.05,172.25 C1158.05,225.45 1195.85,261.15 1247.65,261.15 Z M1276.7,154.4 L1212.65,154.4 C1216.15,137.25 1228.75,127.1 1245.55,127.1 C1262,127.1 1273.2,137.6 1276.7,154.4 Z M1399.76667,258 L1399.76667,171.9 C1399.76667,145.3 1412.36667,132.35 1431.26667,132.35 C1449.11667,132.35 1458.56667,140.4 1458.56667,168.75 L1458.56667,258 L1513.16667,258 L1513.16667,155.45 C1513.16667,101.2 1487.26667,83.7 1451.91667,83.7 C1431.96667,83.7 1413.76667,91.4 1400.46667,106.8 L1399.76667,106.8 L1399.76667,86.85 L1345.16667,86.85 L1345.16667,258 L1399.76667,258 Z M1590.73333,261.15 C1614.53333,261.15 1626.78333,256.25 1638.68333,249.6 L1625.03333,209.35 C1619.08333,212.15 1612.08333,213.2 1608.23333,213.2 C1597.73333,213.2 1595.28333,205.15 1595.28333,193.95 L1595.28333,130.95 L1636.58333,130.95 L1636.58333,86.85 L1595.28333,86.85 L1595.28333,26.3 L1540.33333,31.9 L1540.33333,86.85 L1521.08333,86.85 L1521.08333,130.95 L1540.33333,130.95 L1540.33333,204.1 C1540.33333,242.95 1561.33333,261.15 1590.73333,261.15 Z M1679.15,65.5 C1698.05,65.5 1712.05,51.85 1712.05,34 C1712.05,16.85 1698.05,3.2 1679.15,3.2 C1660.25,3.2 1646.6,17.2 1646.6,34 C1646.6,51.85 1660.25,65.5 1679.15,65.5 Z M1706.45,258 L1706.45,86.85 L1651.85,86.85 L1651.85,258 L1706.45,258 Z M1816.56667,261.15 C1870.46667,261.15 1908.96667,225.1 1908.96667,172.6 C1908.96667,119.75 1870.46667,83.7 1816.56667,83.7 C1761.26667,83.7 1723.81667,120.45 1723.81667,172.6 C1723.81667,224.4 1761.26667,261.15 1816.56667,261.15 Z M1816.56667,212.85 C1794.86667,212.85 1779.11667,195.35 1779.11667,172.6 C1779.11667,149.15 1794.51667,132.35 1816.56667,132.35 C1837.91667,132.35 1853.66667,148.8 1853.66667,172.6 C1853.66667,196.05 1837.21667,212.85 1816.56667,212.85 Z M1979.18333,258 L1979.18333,171.9 C1979.18333,145.3 1991.78333,132.35 2010.68333,132.35 C2028.53333,132.35 2037.98333,140.4 2037.98333,168.75 L2037.98333,258 L2092.58333,258 L2092.58333,155.45 C2092.58333,101.2 2066.68333,83.7 2031.33333,83.7 C2011.38333,83.7 1993.18333,91.4 1979.88333,106.8 L1979.18333,106.8 L1979.18333,86.85 L1924.58333,86.85 L1924.58333,258 L1979.18333,258 Z M2170.85,261.15 C2217.75,261.15 2240.5,238.05 2240.5,206.2 C2240.5,172.6 2219.85,162.8 2182.05,149.85 C2164.9,143.9 2158.6,140.05 2158.6,134.8 C2158.6,128.15 2165.95,125.35 2172.25,125.35 C2183.8,125.35 2198.5,131.3 2210.4,143.2 L2236.3,105.05 C2216.35,90.35 2197.45,83.7 2171.55,83.7 C2135.85,83.7 2107.5,103.65 2107.5,138.3 C2107.5,171.2 2132.7,185.2 2161.4,193.95 C2182.75,200.6 2188,204.1 2188,209.7 C2188,216 2182.4,219.85 2171.55,219.85 C2155.8,219.85 2141.1,213.55 2126.75,200.6 L2101.2,235.95 C2120.1,252.75 2143.9,261.15 2170.85,261.15 Z M2335.91667,261.15 C2374.76667,261.15 2398.56667,248.2 2412.91667,230.35 L2381.41667,198.15 C2369.86667,211.1 2355.51667,216.35 2341.51667,216.7 C2320.51667,216.7 2304.06667,206.55 2300.56667,186.95 L2417.11667,186.95 C2417.31226,184.994118 2417.61714,181.617344 2417.84809,178.163418 L2417.91835,177.071708 C2418.06433,174.707569 2418.16667,172.373529 2418.16667,170.5 C2418.16667,119.75 2382.81667,83.7 2334.51667,83.7 C2282.71667,83.7 2246.31667,120.45 2246.31667,172.25 C2246.31667,225.45 2284.11667,261.15 2335.91667,261.15 Z M2364.96667,154.4 L2300.91667,154.4 C2304.41667,137.25 2317.01667,127.1 2333.81667,127.1 C2350.26667,127.1 2361.46667,137.6 2364.96667,154.4 Z M2514.63333,261.15 C2553.48333,261.15 2577.28333,248.2 2591.63333,230.35 L2560.13333,198.15 C2548.58333,211.1 2534.23333,216.35 2520.23333,216.7 C2499.23333,216.7 2482.78333,206.55 2479.28333,186.95 L2595.83333,186.95 C2596.18333,183.45 2596.88333,175.4 2596.88333,170.5 C2596.88333,119.75 2561.53333,83.7 2513.23333,83.7 C2461.43333,83.7 2425.03333,120.45 2425.03333,172.25 C2425.03333,225.45 2462.83333,261.15 2514.63333,261.15 Z M2543.68333,154.4 L2479.63333,154.4 C2483.13333,137.25 2495.73333,127.1 2512.53333,127.1 C2528.98333,127.1 2540.18333,137.6 2543.68333,154.4 Z M2666.05,258 L2666.05,209.7 L2683.2,190.8 L2721.35,258 L2781.9,258 L2722.4,155.1 L2780.15,86.85 L2716.8,86.85 L2666.75,148.45 L2666.05,148.45 L2666.05,0.4 L2612.15,0.4 L2612.15,258 L2666.05,258 Z M2858.41667,261.15 C2897.26667,261.15 2921.06667,248.2 2935.41667,230.35 L2903.91667,198.15 C2892.36667,211.1 2878.01667,216.35 2864.01667,216.7 C2843.01667,216.7 2826.56667,206.55 2823.06667,186.95 L2939.61667,186.95 C2939.81226,184.994118 2940.11714,181.617344 2940.34809,178.163418 L2940.41835,177.071708 C2940.56433,174.707569 2940.66667,172.373529 2940.66667,170.5 C2940.66667,119.75 2905.31667,83.7 2857.01667,83.7 C2805.21667,83.7 2768.81667,120.45 2768.81667,172.25 C2768.81667,225.45 2806.61667,261.15 2858.41667,261.15 Z M2887.46667,154.4 L2823.41667,154.4 C2826.91667,137.25 2839.51667,127.1 2856.31667,127.1 C2872.76667,127.1 2883.96667,137.6 2887.46667,154.4 Z M3010.53334,258 L3010.53334,181 C3010.53334,158.6 3023.83334,142.15 3049.73334,142.15 C3052.53334,142.15 3057.43334,142.5 3062.68334,142.85 L3062.68334,83.7 L3060.58334,83.7 C3041.68334,83.7 3023.83334,93.15 3011.23334,110.65 L3010.53334,110.65 L3010.53334,86.85 L2955.93334,86.85 L2955.93334,258 L3010.53334,258 Z" id="attentionseeker" fill="#FFFFFF" fill-rule="nonzero"></path>
        <path d="M3076.21524,53 L3076.21524,28.92 L3084.37524,28.92 L3084.37524,24.6 L3063.33524,24.6 L3063.33524,28.92 L3071.37524,28.92 L3071.37524,53 L3076.21524,53 Z M3092.4,53 L3092.4,34 L3092.44,34 L3100.2,47.52 L3103.36,47.52 L3111.12,34 L3111.2,34 L3111.2,53 L3116.04,53 L3116.04,24.6 L3111.2,24.6 L3101.84,41.6 L3101.76,41.6 L3092.4,24.6 L3087.56,24.6 L3087.56,53 L3092.4,53 Z" id="TM" fill="#FFFFFF" fill-rule="nonzero"></path>
        <circle id="Oval" fill="#0758B3" cx="166.196226" cy="170" r="166"></circle>
        <circle id="Oval" fill="#0D3581" cx="166.822642" cy="168.120755" r="62.6415094"></circle>
        <circle id="Oval" fill="#E73C5C" cx="522" cy="170" r="166"></circle>
        <circle id="Oval" fill="#BB233E" cx="522.626415" cy="168.120755" r="62.6415094"></circle>
    </g>
</svg>