<svg xmlns="http://www.w3.org/2000/svg" xmlns:xlink="http://www.w3.org/1999/xlink" width="3237" height="458" viewBox="0 0 3237 458" version="1.1">
    <title>DarkLogo</title>
    <g id="DarkLogo" stroke="none" stroke-width="1" fill="none" fill-rule="evenodd">
        <path d="M859.849997,313.15 C880.499997,313.15 895.899997,306.15 907.099997,291.8 L907.799997,292.15 L907.799997,310 L959.949997,310 L959.949997,138.85 L904.999997,138.85 L904.999997,156.7 L904.299997,157.05 C892.399997,143.05 875.249997,135.7 857.049997,135.7 C812.949997,135.7 778.999997,172.1 778.999997,224.6 C778.999997,277.45 812.949997,313.15 859.849997,313.15 Z M871.399997,264.85 C849.699997,264.85 834.649997,248.75 834.649997,224.6 C834.649997,200.1 850.399997,184 871.399997,184 C891.699997,184 907.449997,201.15 907.449997,224.6 C907.449997,249.1 890.999997,264.85 871.399997,264.85 Z M1038.56666,313.15 C1062.36666,313.15 1074.61666,308.25 1086.51666,301.6 L1072.86666,261.35 C1066.91666,264.15 1059.91666,265.2 1056.06666,265.2 C1045.56666,265.2 1043.11666,257.15 1043.11666,245.95 L1043.11666,182.95 L1084.41666,182.95 L1084.41666,138.85 L1043.11666,138.85 L1043.11666,78.3 L988.166664,83.9 L988.166664,138.85 L968.916664,138.85 L968.916664,182.95 L988.166664,182.95 L988.166664,256.1 C988.166664,294.95 1009.16666,313.15 1038.56666,313.15 Z M1157.08333,313.15 C1180.88333,313.15 1193.13333,308.25 1205.03333,301.6 L1191.38333,261.35 C1185.43333,264.15 1178.43333,265.2 1174.58333,265.2 C1164.08333,265.2 1161.63333,257.15 1161.63333,245.95 L1161.63333,182.95 L1202.93333,182.95 L1202.93333,138.85 L1161.63333,138.85 L1161.63333,78.3 L1106.68333,83.9 L1106.68333,138.85 L1087.43333,138.85 L1087.43333,182.95 L1106.68333,182.95 L1106.68333,256.1 C1106.68333,294.95 1127.68333,313.15 1157.08333,313.15 Z M1290.65,313.15 C1329.5,313.15 1353.3,300.2 1367.65,282.35 L1336.15,250.15 C1324.6,263.1 1310.25,268.35 1296.25,268.7 C1275.25,268.7 1258.8,258.55 1255.3,238.95 L1371.85,238.95 C1372.2,235.45 1372.9,227.4 1372.9,222.5 C1372.9,171.75 1337.55,135.7 1289.25,135.7 C1237.45,135.7 1201.05,172.45 1201.05,224.25 C1201.05,277.45 1238.85,313.15 1290.65,313.15 Z M1319.7,206.4 L1255.65,206.4 C1259.15,189.25 1271.75,179.1 1288.55,179.1 C1305,179.1 1316.2,189.6 1319.7,206.4 Z M1442.76667,310 L1442.76667,223.9 C1442.76667,197.3 1455.36667,184.35 1474.26667,184.35 C1492.11667,184.35 1501.56667,192.4 1501.56667,220.75 L1501.56667,310 L1556.16667,310 L1556.16667,207.45 C1556.16667,153.2 1530.26667,135.7 1494.91667,135.7 C1474.96667,135.7 1456.76667,143.4 1443.46667,158.8 L1442.76667,158.8 L1442.76667,138.85 L1388.16667,138.85 L1388.16667,310 L1442.76667,310 Z M1633.73333,313.15 C1657.53333,313.15 1669.78333,308.25 1681.68333,301.6 L1668.03333,261.35 C1662.08333,264.15 1655.08333,265.2 1651.23333,265.2 C1640.73333,265.2 1638.28333,257.15 1638.28333,245.95 L1638.28333,182.95 L1679.58333,182.95 L1679.58333,138.85 L1638.28333,138.85 L1638.28333,78.3 L1583.33333,83.9 L1583.33333,138.85 L1564.08333,138.85 L1564.08333,182.95 L1583.33333,182.95 L1583.33333,256.1 C1583.33333,294.95 1604.33333,313.15 1633.73333,313.15 Z M1722.15,117.5 C1741.05,117.5 1755.05,103.85 1755.05,86 C1755.05,68.85 1741.05,55.2 1722.15,55.2 C1703.25,55.2 1689.6,69.2 1689.6,86 C1689.6,103.85 1703.25,117.5 1722.15,117.5 Z M1749.45,310 L1749.45,138.85 L1694.85,138.85 L1694.85,310 L1749.45,310 Z M1859.56667,313.15 C1913.46667,313.15 1951.96667,277.1 1951.96667,224.6 C1951.96667,171.75 1913.46667,135.7 1859.56667,135.7 C1804.26667,135.7 1766.81667,172.45 1766.81667,224.6 C1766.81667,276.4 1804.26667,313.15 1859.56667,313.15 Z M1859.56667,264.85 C1837.86667,264.85 1822.11667,247.35 1822.11667,224.6 C1822.11667,201.15 1837.51667,184.35 1859.56667,184.35 C1880.91667,184.35 1896.66667,200.8 1896.66667,224.6 C1896.66667,248.05 1880.21667,264.85 1859.56667,264.85 Z M2022.18333,310 L2022.18333,223.9 C2022.18333,197.3 2034.78333,184.35 2053.68333,184.35 C2071.53333,184.35 2080.98333,192.4 2080.98333,220.75 L2080.98333,310 L2135.58333,310 L2135.58333,207.45 C2135.58333,153.2 2109.68333,135.7 2074.33333,135.7 C2054.38333,135.7 2036.18333,143.4 2022.88333,158.8 L2022.18333,158.8 L2022.18333,138.85 L1967.58333,138.85 L1967.58333,310 L2022.18333,310 Z M2213.85,313.15 C2260.75,313.15 2283.5,290.05 2283.5,258.2 C2283.5,224.6 2262.85,214.8 2225.05,201.85 C2207.9,195.9 2201.6,192.05 2201.6,186.8 C2201.6,180.15 2208.95,177.35 2215.25,177.35 C2226.8,177.35 2241.5,183.3 2253.4,195.2 L2279.3,157.05 C2259.35,142.35 2240.45,135.7 2214.55,135.7 C2178.85,135.7 2150.5,155.65 2150.5,190.3 C2150.5,223.2 2175.7,237.2 2204.4,245.95 C2225.75,252.6 2231,256.1 2231,261.7 C2231,268 2225.4,271.85 2214.55,271.85 C2198.8,271.85 2184.1,265.55 2169.75,252.6 L2144.2,287.95 C2163.1,304.75 2186.9,313.15 2213.85,313.15 Z M2378.91667,313.15 C2417.76667,313.15 2441.56667,300.2 2455.91667,282.35 L2424.41667,250.15 C2412.86667,263.1 2398.51667,268.35 2384.51667,268.7 C2363.51667,268.7 2347.06667,258.55 2343.56667,238.95 L2460.11667,238.95 C2460.31226,236.994118 2460.61714,233.617344 2460.84809,230.163418 L2460.91835,229.071708 C2461.06433,226.707569 2461.16667,224.373529 2461.16667,222.5 C2461.16667,171.75 2425.81667,135.7 2377.51667,135.7 C2325.71667,135.7 2289.31667,172.45 2289.31667,224.25 C2289.31667,277.45 2327.11667,313.15 2378.91667,313.15 Z M2407.96667,206.4 L2343.91667,206.4 C2347.41667,189.25 2360.01667,179.1 2376.81667,179.1 C2393.26667,179.1 2404.46667,189.6 2407.96667,206.4 Z M2557.63333,313.15 C2596.48333,313.15 2620.28333,300.2 2634.63333,282.35 L2603.13333,250.15 C2591.58333,263.1 2577.23333,268.35 2563.23333,268.7 C2542.23333,268.7 2525.78333,258.55 2522.28333,238.95 L2638.83333,238.95 C2639.18333,235.45 2639.88333,227.4 2639.88333,222.5 C2639.88333,171.75 2604.53333,135.7 2556.23333,135.7 C2504.43333,135.7 2468.03333,172.45 2468.03333,224.25 C2468.03333,277.45 2505.83333,313.15 2557.63333,313.15 Z M2586.68333,206.4 L2522.63333,206.4 C2526.13333,189.25 2538.73333,179.1 2555.53333,179.1 C2571.98333,179.1 2583.18333,189.6 2586.68333,206.4 Z M2709.05,310 L2709.05,261.7 L2726.2,242.8 L2764.35,310 L2824.9,310 L2765.4,207.1 L2823.15,138.85 L2759.8,138.85 L2709.75,200.45 L2709.05,200.45 L2709.05,52.4 L2655.15,52.4 L2655.15,310 L2709.05,310 Z M2901.41667,313.15 C2940.26667,313.15 2964.06667,300.2 2978.41667,282.35 L2946.91667,250.15 C2935.36667,263.1 2921.01667,268.35 2907.01667,268.7 C2886.01667,268.7 2869.56667,258.55 2866.06667,238.95 L2982.61667,238.95 C2982.81226,236.994118 2983.11714,233.617344 2983.34809,230.163418 L2983.41835,229.071708 C2983.56433,226.707569 2983.66667,224.373529 2983.66667,222.5 C2983.66667,171.75 2948.31667,135.7 2900.01667,135.7 C2848.21667,135.7 2811.81667,172.45 2811.81667,224.25 C2811.81667,277.45 2849.61667,313.15 2901.41667,313.15 Z M2930.46667,206.4 L2866.41667,206.4 C2869.91667,189.25 2882.51667,179.1 2899.31667,179.1 C2915.76667,179.1 2926.96667,189.6 2930.46667,206.4 Z M3053.53334,310 L3053.53334,233 C3053.53334,210.6 3066.83334,194.15 3092.73334,194.15 C3095.53334,194.15 3100.43334,194.5 3105.68334,194.85 L3105.68334,135.7 L3103.58334,135.7 C3084.68334,135.7 3066.83334,145.15 3054.23334,162.65 L3053.53334,162.65 L3053.53334,138.85 L2998.93334,138.85 L2998.93334,310 L3053.53334,310 Z" id="attentionseeker" fill="#161931" fill-rule="nonzero"/>
        <path d="M3119.21524,105 L3119.21524,80.92 L3127.37524,80.92 L3127.37524,76.6 L3106.33524,76.6 L3106.33524,80.92 L3114.37524,80.92 L3114.37524,105 L3119.21524,105 Z M3135.4,105 L3135.4,86 L3135.44,86 L3143.2,99.52 L3146.36,99.52 L3154.12,86 L3154.2,86 L3154.2,105 L3159.04,105 L3159.04,76.6 L3154.2,76.6 L3144.84,93.6 L3144.76,93.6 L3135.4,76.6 L3130.56,76.6 L3130.56,105 L3135.4,105 Z" id="TM" fill="#161931" fill-rule="nonzero"/>
        <circle id="Oval" fill="#0758B3" cx="209.196226" cy="222" r="166"/>
        <circle id="Oval" fill="#0D3581" cx="209.822642" cy="220.120755" r="62.6415094"/>
        <circle id="Oval" fill="#E73C5C" cx="565" cy="222" r="166"/>
        <circle id="Oval" fill="#BB233E" cx="565.626415" cy="220.120755" r="62.6415094"/>
    </g>
</svg>